HIERARCHY
ROOT Hips
{
	OFFSET 0.000000 0.000000 0.000000
	CHANNELS 6 Xposition Yposition Zposition Xrotation Yrotation Zrotation
	JOINT LeftUpLeg_virtual
	{
		OFFSET 0.000000 0.000000 0.000000
		CHANNELS 3 Xrotation Yrotation Zrotation
		JOINT LeftUpLeg
		{
			OFFSET 13.026900 -6.336304 -1.092800
			CHANNELS 3 Xrotation Yrotation Zrotation
			JOINT LeftLeg
			{
				OFFSET 0.524474 -46.096886 9.782700
				CHANNELS 3 Xrotation Yrotation Zrotation
				JOINT LeftFoot
				{
					OFFSET -0.524474 -53.427422 -12.948200
					CHANNELS 3 Xrotation Yrotation Zrotation
					JOINT LeftToeBase
					{
						OFFSET 0.192200 -14.009700 16.364100
						CHANNELS 3 Xrotation Yrotation Zrotation
						JOINT LeftToe_End
						{
							OFFSET -1.784700 -0.561700 9.474800
							CHANNELS 3 Xrotation Yrotation Zrotation
							End Site
							{
								OFFSET 0 0 0
							}
						}
					}
				}
			}
		}
	}
	JOINT RightUpLeg_virtual
	{
		OFFSET 0.000000 0.000000 0.000000
		CHANNELS 3 Xrotation Yrotation Zrotation
		JOINT RightUpLeg
		{
			OFFSET -12.883000 -6.336304 -1.092800
			CHANNELS 3 Xrotation Yrotation Zrotation
			JOINT RightLeg
			{
				OFFSET -0.524587 -46.096825 9.782800
				CHANNELS 3 Xrotation Yrotation Zrotation
				JOINT RightFoot
				{
					OFFSET 0.524587 -53.427383 -12.948300
					CHANNELS 3 Xrotation Yrotation Zrotation
					JOINT RightToeBase
					{
						OFFSET -0.192200 -14.009700 16.364100
						CHANNELS 3 Xrotation Yrotation Zrotation
						JOINT RightToe_End
						{
							OFFSET 1.784700 -0.561700 9.474800
							CHANNELS 3 Xrotation Yrotation Zrotation
							End Site
							{
								OFFSET 0 0 0
							}
						}
					}
				}
			}
		}
	}
	JOINT Spine_virtual
	{
		OFFSET 0.000000 0.000000 0.000000
		CHANNELS 3 Xrotation Yrotation Zrotation
		JOINT Spine
		{
			OFFSET 0.072000 7.257294 -0.789700
			CHANNELS 3 Xrotation Yrotation Zrotation
			JOINT Spine1
			{
				OFFSET 0.000000 12.508769 -0.658067
				CHANNELS 3 Xrotation Yrotation Zrotation
				JOINT Spine1_split
				{
					OFFSET 0.000000 12.508769 -0.658067
					CHANNELS 3 Xrotation Yrotation Zrotation
					JOINT Spine2
					{
						OFFSET 0.000000 12.508769 -0.658067
						CHANNELS 3 Xrotation Yrotation Zrotation
						JOINT Neck_virtual
						{
							OFFSET 0.000000 0.000000 0.000000
							CHANNELS 3 Xrotation Yrotation Zrotation
							JOINT Neck
							{
								OFFSET 0.000000 14.033295 7.520400
								CHANNELS 3 Xrotation Yrotation Zrotation
								JOINT Head
								{
									OFFSET 0.000000 8.198502 5.703100
									CHANNELS 3 Xrotation Yrotation Zrotation
									JOINT HeadTop_End
									{
										OFFSET 0.000000 17.760803 13.332701
										CHANNELS 3 Xrotation Yrotation Zrotation
										End Site
										{
											OFFSET 0 0 0
										}
									}
								}
							}
						}
						JOINT LeftShoulder_virtual
						{
							OFFSET 0.000000 0.000000 0.000000
							CHANNELS 3 Xrotation Yrotation Zrotation
							JOINT LeftShoulder
							{
								OFFSET 6.292450 5.785301 -0.669000
								CHANNELS 3 Xrotation Yrotation Zrotation
								JOINT LeftShoulder_split
								{
									OFFSET 6.292450 5.785301 -0.669000
									CHANNELS 3 Xrotation Yrotation Zrotation
									JOINT LeftArm
									{
										OFFSET 13.907140 -6.093903 1.965100
										CHANNELS 3 Xrotation Yrotation Zrotation
										JOINT LeftForeArm
										{
											OFFSET 34.140198 0.000000 0.000000
											CHANNELS 3 Xrotation Yrotation Zrotation
											JOINT LeftHand
											{
												OFFSET 40.960209 0.000000 0.000000
												CHANNELS 3 Xrotation Yrotation Zrotation
												End Site
												{
													OFFSET 0 0 0
												}
											}
										}
									}
								}
							}
						}
						JOINT RightShoulder_virtual
						{
							OFFSET 0.000000 0.000000 0.000000
							CHANNELS 3 Xrotation Yrotation Zrotation
							JOINT RightShoulder
							{
								OFFSET -6.292450 5.785301 -0.669000
								CHANNELS 3 Xrotation Yrotation Zrotation
								JOINT RightShoulder_split
								{
									OFFSET -6.292450 5.785301 -0.669000
									CHANNELS 3 Xrotation Yrotation Zrotation
									JOINT RightArm
									{
										OFFSET -13.907140 -6.093903 1.965100
										CHANNELS 3 Xrotation Yrotation Zrotation
										JOINT RightForeArm
										{
											OFFSET -34.140198 0.000000 0.000000
											CHANNELS 3 Xrotation Yrotation Zrotation
											JOINT RightHand
											{
												OFFSET -40.960209 0.000000 0.000000
												CHANNELS 3 Xrotation Yrotation Zrotation
												End Site
												{
													OFFSET 0 0 0
												}
											}
										}
									}
								}
							}
						}
					}
				}
			}
		}
	}
}
MOTION
Frames: 4
Frame Time: 0.03333333
-122.378769 94.426544 -8.945980 0.000000 0.000000 0.000000 17.378247 -60.533112 14.799148 -51.211495 -14.461641 11.519888 37.657517 -1.552352 -1.987202 11.453232 4.053465 -19.092472 -1.865355 -0.427102 -0.076799 0.000000 0.000000 0.000000 17.764911 -59.840025 15.735610 -51.853625 -0.073880 -10.260250 79.791779 6.014070 -4.353505 -8.319746 3.399285 13.960154 -15.998709 1.301457 -4.284242 0.000000 0.000000 0.000000 17.837107 -58.028297 13.371113 14.423109 4.091053 -5.333002 16.335962 3.981448 -5.108284 0.672858 -1.387150 0.899082 0.000000 0.000000 0.000000 16.527692 4.269518 -5.181750 -10.290257 14.642956 7.224305 -12.637272 15.018061 0.094248 0.000000 0.000000 0.000000 17.495569 3.545208 -4.815896 -0.590402 -9.517591 11.669919 -2.851395 -3.211781 -5.420856 -32.928964 17.369916 -21.994410 0.429352 -67.941995 -1.281990 0.000000 0.000000 0.000000 15.997462 3.921296 -4.724034 -1.874584 12.827707 16.803391 2.806803 3.358441 -0.035219 -44.253830 -2.111771 42.601174 -42.720060 71.167218 39.076001 0.000000 0.000000 0.000000 
-126.073792 93.758507 -8.810947 0.000000 0.000000 0.000000 12.959758 -61.250077 10.119984 -47.948225 -16.922625 14.024067 42.990788 -2.805289 -2.604763 8.235825 4.254127 -17.353752 -0.333807 -0.415242 -0.313324 0.000000 0.000000 0.000000 13.552898 -61.314970 11.449143 -53.466653 0.995537 -12.637739 79.050868 5.693923 -4.150203 -5.424985 1.981818 13.897429 -12.344711 0.932590 -2.937212 0.000000 0.000000 0.000000 15.677285 -60.209989 10.846613 14.850619 3.741749 -5.437774 16.011891 3.079093 -5.610330 0.915255 -1.294051 0.805872 0.000000 0.000000 0.000000 16.231542 3.209466 -5.759329 -12.726715 16.552730 6.399785 -13.428411 17.811187 0.737472 0.000000 0.000000 0.000000 17.293658 2.599893 -5.417921 -0.795143 -10.388550 10.265058 -4.057762 -4.041233 -6.541616 -35.251798 17.015724 -20.386228 0.409858 -69.008010 -0.466147 0.000000 0.000000 0.000000 15.775749 2.957023 -5.366148 -2.236011 12.853317 15.245725 2.886624 4.221015 0.590273 -43.141790 -3.027623 44.090439 -41.160728 71.916168 37.503886 0.000000 0.000000 0.000000 
-129.612137 93.810738 -8.695560 0.000000 0.000000 0.000000 8.903716 -61.169658 6.066167 -43.977594 -18.739425 16.047932 45.680947 -3.549474 -3.030794 3.100835 4.494344 -15.181038 1.261034 -0.373298 -0.684392 0.000000 0.000000 0.000000 9.359875 -61.653044 7.429734 -52.409035 2.513714 -14.594043 74.338181 4.664873 -4.107682 -4.530161 -0.703662 13.578407 -6.838201 0.541190 -0.998436 0.000000 0.000000 0.000000 12.886096 -61.635846 8.245312 15.018640 3.366277 -5.292150 15.572147 2.378163 -5.987183 1.000653 -0.983504 0.666362 0.000000 0.000000 0.000000 15.754378 2.426220 -6.202207 -14.765320 18.585440 5.667738 -12.859603 20.876449 1.155644 0.000000 0.000000 0.000000 16.863080 1.903668 -5.845095 -1.341933 -11.479441 7.423097 -4.683534 -4.383674 -7.210468 -35.956517 16.293729 -21.125994 1.258698 -71.198069 0.990703 0.000000 0.000000 0.000000 15.478880 2.231104 -5.799379 -2.498955 12.986404 13.473579 3.113113 4.786679 1.150838 -41.874056 -4.357574 44.564136 -41.255507 73.651528 37.718661 0.000000 0.000000 0.000000 
-132.822678 94.001770 -8.545284 0.000000 0.000000 0.000000 5.788234 -60.978809 3.180432 -40.341027 -19.583291 17.694288 46.596995 -4.325378 -3.451713 -2.300964 3.719177 -13.274830 0.812355 -0.370907 -0.844577 0.000000 0.000000 0.000000 5.385265 -61.356436 3.904468 -49.378344 3.710445 -16.089359 67.501366 3.483105 -4.573015 -5.422300 -3.369921 13.856770 -1.175359 0.338499 0.853919 0.000000 0.000000 0.000000 9.972844 -62.295498 5.955231 14.843478 3.040834 -5.028765 15.013331 1.885704 -6.257822 0.736639 -1.036634 0.446784 0.000000 0.000000 0.000000 15.170887 1.928005 -6.473401 -16.202252 20.500181 4.920043 -11.036455 23.781406 1.299964 0.000000 0.000000 0.000000 16.229887 1.472035 -6.114206 -2.202240 -12.638772 3.483812 -4.777647 -3.941877 -6.768524 -34.253897 15.216939 -23.358484 2.595481 -73.214348 2.602913 0.000000 0.000000 0.000000 15.075010 1.750528 -6.022084 -2.624865 13.074382 11.720849 3.485110 4.928053 1.530029 -40.687171 -6.572771 44.181994 -47.067667 77.049329 43.765571 0.000000 0.000000 0.000000 
